<?xml version="1.0" encoding="iso-8859-1"?>
<!-- Uploaded to: SVG Repo, www.svgrepo.com, Generator: SVG Repo Mixer Tools -->
<svg fill="#000000" height="800px" width="800px" version="1.1" id="Layer_1" xmlns="http://www.w3.org/2000/svg" xmlns:xlink="http://www.w3.org/1999/xlink" 
	 viewBox="0 0 512 512" xml:space="preserve">
<g>
	<g>
		<path d="M490.096,213.64h-20.687v-20.689c0-12.078-9.826-21.904-21.904-21.904H405.81c-12.078,0-21.904,9.826-21.904,21.904
			v20.689h-20.688c-12.078,0-21.904,9.827-21.904,21.905v41.695c0,12.078,9.826,21.904,21.904,21.904h20.688v20.689
			c0,12.078,9.826,21.904,21.904,21.904h41.695c12.078,0,21.904-9.826,21.904-21.904v-20.689h20.687
			c12.078,0,21.904-9.826,21.904-21.904v-41.695C512,223.466,502.174,213.64,490.096,213.64z M491.602,277.24
			c0,0.83-0.675,1.505-1.505,1.505H459.21c-5.633,0-10.199,4.566-10.199,10.199v30.888c0,0.83-0.675,1.505-1.505,1.505H405.81
			c-0.83,0-1.505-0.675-1.505-1.505v-30.888c0-5.633-4.566-10.199-10.199-10.199h-30.887c-0.83,0-1.505-0.675-1.505-1.505v-41.695
			c0-0.83,0.675-1.506,1.505-1.506h30.887c5.633,0,10.199-4.566,10.199-10.199v-30.888c0-0.83,0.675-1.505,1.505-1.505h41.695
			c0.83,0,1.505,0.675,1.505,1.505v30.888c0,5.633,4.566,10.199,10.199,10.199h30.886c0.83,0,1.505,0.676,1.505,1.506V277.24z"/>
	</g>
</g>
<g>
	<g>
		<path d="M331.437,244.572c-0.22-3.003-1.423-9.675-1.823-11.842c-1.744-10.646-10.807-18.355-21.613-18.355H172.738
			c-12.079,0-21.905,9.826-21.905,21.904v46.791c0,12.078,9.827,21.904,21.905,21.904h50.447c-1.082,1.319-2.222,2.626-3.416,3.917
			c-11.811,12.773-29.564,20.1-48.709,20.1c-19.724,0-38.565-7.68-51.695-21.073c-27.512-28.056-27.2-76.941,0.666-104.611
			c13.028-12.933,30.964-20.349,49.207-20.349c12.196,0,23.905,3.253,33.873,9.408l13.097,8.961
			c8.654,5.922,20.339,4.862,27.786-2.515l38.748-38.385c4.656-4.612,6.989-11.001,6.4-17.524
			c-0.581-6.481-3.975-12.312-9.315-16.024c-2.093-1.506-17.201-12.357-23.234-15.904c-6.094-3.582-18.526-9.578-25.158-12.531
			c-18.237-8.118-38.843-12.064-62.996-12.064c-44.437,0-86.359,17.058-118.042,48.032C18.21,165.877,0.313,208.626,0.004,254.779
			c-0.31,46.165,17.015,89.158,48.785,121.059c31.503,31.638,76.137,49.783,122.456,49.783c45.968,0,89.176-17.931,118.543-49.197
			c25.098-26.718,39.392-59.858,41.34-95.837C331.537,273.039,332.15,254.302,331.437,244.572z M310.758,279.487
			c-1.684,31.114-14.077,59.806-35.839,82.975c-25.528,27.177-63.317,42.764-103.676,42.764c-40.932,0-80.297-15.957-108.001-43.778
			c-27.899-28.017-43.113-65.85-42.84-106.531c0.272-40.67,15.988-78.287,44.254-105.92c27.849-27.227,64.706-42.221,103.781-42.221
			c21.237,0,39.129,3.369,54.702,10.301c6.036,2.688,17.743,8.323,23.119,11.481c4.489,2.64,17.205,11.67,21.725,14.927
			c0.064,0.046,0.129,0.092,0.193,0.136c0.373,0.255,0.609,0.658,0.65,1.11c0.04,0.448-0.12,0.886-0.44,1.203l-38.748,38.385
			c-0.513,0.507-1.317,0.578-1.911,0.172l-13.286-9.091c-0.121-0.083-0.245-0.163-0.37-0.242c-13.246-8.243-28.748-12.6-44.833-12.6
			c-23.585,0-46.758,9.575-63.579,26.272c-17.006,16.886-26.852,41.125-27.016,66.503c-0.163,25.377,9.371,49.749,26.156,66.865
			c16.94,17.279,41.091,27.19,66.26,27.19c24.814,0,48.027-9.713,63.685-26.647c6.973-7.539,12.586-15.746,16.23-23.734
			c1.44-3.158,1.176-6.83-0.701-9.749c-1.878-2.919-5.11-4.683-8.58-4.683h-68.958c-0.83,0-1.506-0.675-1.506-1.505v-46.791
			c0-0.83,0.676-1.505,1.506-1.505h135.264c0.746,0,1.371,0.534,1.486,1.271c0.014,0.093,0.03,0.186,0.047,0.277
			c0.672,3.638,1.46,8.397,1.558,9.741C311.671,253.964,311.235,270.679,310.758,279.487z"/>
	</g>
</g>
<g>
	<g>
		<path d="M276.399,243.762h-4.08c-5.633,0-10.199,4.566-10.199,10.199c0,5.633,4.566,10.199,10.199,10.199h4.08
			c5.633,0,10.199-4.566,10.199-10.199C286.599,248.328,282.032,243.762,276.399,243.762z"/>
	</g>
</g>
<g>
	<g>
		<path d="M242.742,243.762h-52.016c-5.633,0-10.199,4.566-10.199,10.199c0,5.633,4.566,10.199,10.199,10.199h52.016
			c5.633,0,10.199-4.566,10.199-10.199C252.941,248.328,248.375,243.762,242.742,243.762z"/>
	</g>
</g>
</svg>