<?xml version="1.0" encoding="iso-8859-1"?>
<!-- Uploaded to: SVG Repo, www.svgrepo.com, Generator: SVG Repo Mixer Tools -->
<svg fill="#000000" height="800px" width="800px" version="1.1" id="Layer_1" xmlns="http://www.w3.org/2000/svg" xmlns:xlink="http://www.w3.org/1999/xlink" 
	 viewBox="0 0 512 512" xml:space="preserve">
<g>
	<g>
		<path d="M429.392,227.24c0.633-74.343-62.428-142.461-140.558-151.846l-15.863-1.931c-0.408-0.05-0.821-0.074-1.232-0.074
			c-16.192,0-27.449,9.466-30.113,25.322c-1.867,11.119,1.549,18.634,4.746,22.982c7.524,10.231,19.576,11.881,27.54,12.97
			l0.159,0.021c1.777,0.246,3.454,0.476,4.632,0.742c61.973,13.847,80.649,33.309,90.829,94.65c0.177,1.074,0.286,2.86,0.392,4.586
			c0.271,4.468,0.724,11.947,4.118,18.819c4.702,9.517,13.56,14.758,24.941,14.758c1.961,0,4.037-0.164,6.165-0.489
			c10.582-1.608,18.361-7.611,21.907-16.899c2.552-6.685,2.376-13.487,2.234-17.666l0.101-5.855
			C429.391,227.3,429.391,227.27,429.392,227.24z M408.892,233.622c0.374,10.917-1.459,13.149-6.814,13.963
			c-1.118,0.169-2.16,0.256-3.099,0.256c-5.318,0-7.909-1.423-8.697-14.414c-0.137-2.247-0.277-4.569-0.628-6.688
			c-6.048-36.437-15.45-59.101-31.442-75.784c-15.956-16.647-38.404-27.245-75.047-35.432c-2.002-0.45-4.094-0.738-6.308-1.044
			l-0.17-0.022c-5.378-0.736-11.474-1.571-13.882-4.847c-0.469-0.636-1.893-2.574-1.064-7.517c1.174-6.987,5.168-8.206,9.427-8.298
			l15.216,1.851c68.138,8.185,123.129,67.112,122.609,131.374l-0.105,6.076C408.884,233.27,408.886,233.448,408.892,233.622z"/>
	</g>
</g>
<g>
	<g>
		<path d="M505.392,230.922l-0.007-0.16c-0.071-1.597-0.139-3.105-0.123-4.269c0.687-55.663-22.515-112.307-63.656-155.406
			C400.462,27.986,344.968,2.189,289.26,0.31l-12.317-0.307C276.859,0.001,276.774,0,276.689,0
			c-18.487,0-30.625,11.378-31.678,29.697c-0.662,11.571,4.356,20.643,14.13,25.546c6.883,3.453,14.555,4.013,19.15,4.348
			c1.653,0.119,3.364,0.243,4.508,0.418C386.67,75.983,432.3,123,445.538,227.699c0.165,1.303,0.198,3.374,0.229,5.384
			c0.078,4.815,0.208,12.874,3.517,20.304c4.569,10.255,13.763,16.033,25.966,16.267l0.589,0.007c0.04,0.001,0.081,0.001,0.12,0.001
			c8.724,0,16.141-2.937,21.451-8.493C506.335,251.834,505.767,239.247,505.392,230.922z M482.665,247.076
			c-0.515,0.541-2.08,2.175-6.651,2.189l-0.447-0.005c-6.446-0.124-9.176-2.446-9.404-16.506c-0.041-2.553-0.083-5.192-0.388-7.61
			c-7.329-57.958-24.216-98.833-53.142-128.634c-28.934-29.81-69.205-47.814-126.74-56.663c-1.957-0.3-4.081-0.453-6.131-0.601
			c-14.089-1.028-14.646-3.855-14.387-8.382c0.497-8.632,4.83-10.444,11.195-10.465l12.093,0.302
			c105.826,3.572,197.509,99.62,196.202,205.532c-0.022,1.745,0.057,3.539,0.142,5.439l0.007,0.165
			C485.273,237.558,485.566,244.041,482.665,247.076z"/>
	</g>
</g>
<g>
	<g>
		<path d="M456.64,358.889c-2.12-1.619-4.523-3.455-6.682-5.193c-0.131-0.107-0.266-0.209-0.404-0.31l-43.981-31.94
			c-0.043-0.032-0.087-0.063-0.13-0.094c-17.304-12.154-33.182-18.063-48.545-18.063c-21.405,0-39.759,11.356-54.552,33.754
			c-4.755,7.204-8.983,8.175-12.492,8.175c-3.495,0-7.885-1.154-12.698-3.338c-47.782-21.668-81.859-54.789-101.282-98.445
			c-8.907-20.015-4.127-28.362,7.136-36.012c10.733-7.285,33.065-22.443,31.447-52.124c-1.18-21.721-28.147-60.058-36.384-71.29
			c-8.243-11.241-36.711-48.493-56.967-55.94c-12.93-4.755-26.466-4.818-40.229-0.187C49.105,38.563,26.184,57.578,14.588,82.873
			C3.345,107.4,3.737,135.919,15.725,165.346C47.753,243.975,92.81,312.551,149.643,369.17
			c66.662,66.416,133.261,110.588,203.603,135.04c6.969,2.423,20.975,6.657,28.893,7.701c0.443,0.059,0.891,0.088,1.338,0.088
			c19.931,0,41.914-8.376,61.897-23.586c19.781-15.055,34.632-34.526,41.82-54.827C501.504,393.179,474.507,372.545,456.64,358.889z
			 M467.967,426.78c-11.924,33.684-51.708,64.38-83.799,64.817c-5.982-0.924-17.73-4.395-24.222-6.652
			c-67.382-23.424-131.463-66.021-195.904-130.224C109.154,300.038,65.61,233.735,34.618,157.651
			c-9.811-24.08-10.325-47-1.486-66.279c9.188-20.046,27.946-35.315,54.247-44.157c4.625-1.555,9.183-2.335,13.642-2.335
			c4.457,0,8.815,0.778,13.046,2.333c7.733,2.842,25.914,19.344,47.556,48.856c21.658,29.534,32.011,51.979,32.465,60.335
			c0.914,16.768-10.631,26.059-22.537,34.141c-21.464,14.581-26.147,34.593-14.315,61.181
			c21.514,48.354,59.027,84.937,111.492,108.728c7.544,3.426,14.652,5.162,21.126,5.162c11.993,0,21.924-5.833,29.514-17.333
			c10.932-16.55,23.208-24.595,37.531-24.595c11.006,0,23.03,4.681,36.756,14.312l43.711,31.744c2.305,1.851,4.74,3.71,6.892,5.355
			C464.23,390.363,476.67,402.207,467.967,426.78z"/>
	</g>
</g>
<g>
	<g>
		<path d="M357.229,234.149c0.147-19.568-9.833-41.469-26.727-58.632c-17.172-17.441-38.169-27.169-57.566-26.706
			c-0.004,0-0.019,0-0.024,0.001c-6.526,0.165-26.387,0.67-33.269,20.642c-3.948,11.447-1.279,19.691,1.655,24.591
			c6.071,10.139,16.676,13.023,25.243,14.404c20.069,3.22,29.101,12.982,31.173,33.689c1.685,16.897,14.053,29.16,29.41,29.16
			c1.183,0,2.368-0.071,3.488-0.208C338.929,270.101,358.135,264.519,357.229,234.149z M328.169,250.837
			c-0.336,0.041-0.687,0.062-1.046,0.062c-5.551,0-8.576-5.416-9.111-10.789c-2.973-29.714-19.203-47.144-48.233-51.802
			c-6.315-1.017-9.599-2.435-10.98-4.742c-0.383-0.642-1.551-2.593,0.13-7.465c1.918-5.57,6.389-6.694,14.501-6.9
			c13.831-0.302,29.305,7.184,42.537,20.622c13.23,13.44,21.03,30.007,20.865,44.317c-0.002,0.151,0,0.302,0.005,0.453
			C337.334,249.747,331.394,250.453,328.169,250.837z"/>
	</g>
</g>
<g>
	<g>
		<path d="M242.73,379.486c-18.461-13.773-36.586-29.584-55.409-48.338c-14.47-14.416-28.074-30.104-40.438-46.63
			c-3.375-4.511-9.766-5.432-14.277-2.057c-4.51,3.374-5.431,9.766-2.057,14.276c12.953,17.313,27.209,33.752,42.375,48.86
			c19.518,19.446,38.361,35.879,57.609,50.238c1.831,1.366,3.97,2.025,6.091,2.025c3.109,0,6.18-1.418,8.183-4.1
			C248.174,389.244,247.245,382.855,242.73,379.486z"/>
	</g>
</g>
<g>
	<g>
		<path d="M123.327,249.673c-1.809-2.969-3.602-5.99-5.331-8.979c-2.82-4.876-9.059-6.543-13.935-3.724
			c-4.876,2.82-6.544,9.059-3.724,13.935c1.805,3.123,3.68,6.28,5.57,9.381c1.922,3.154,5.279,4.894,8.719,4.894
			c1.809,0,3.641-0.481,5.298-1.491C124.734,260.759,126.258,254.483,123.327,249.673z"/>
	</g>
</g>
</svg>